<?xml version="1.0" encoding="utf-8"?>
<!-- Generator: Adobe Illustrator 26.0.1, SVG Export Plug-In . SVG Version: 6.00 Build 0)  -->
<svg version="1.1" id="Layer_1" xmlns="http://www.w3.org/2000/svg" xmlns:xlink="http://www.w3.org/1999/xlink" x="0px" y="0px"
	 viewBox="0 0 2292 1506" style="enable-background:new 0 0 2292 1506;" xml:space="preserve">
<style type="text/css">
	.st0{fill:#110066;}
	.st1{fill:url(#SVGID_1_);}
	.st2{fill:url(#SVGID_00000106122643868113569830000013176305559049189508_);}
	.st3{fill:url(#SVGID_00000013178196193377525310000018189916470077836420_);}
	.st4{fill:url(#SVGID_00000062893138886186445070000000541358564392605590_);}
	.st5{fill:#FFFFFF;}
</style>
<rect class="st0" width="2292" height="1506"/>
<g>
	<g>
		<linearGradient id="SVGID_1_" gradientUnits="userSpaceOnUse" x1="729.7224" y1="562.0032" x2="429.173" y2="885.956">
			<stop  offset="0" style="stop-color:#21EDF7"/>
			<stop  offset="1" style="stop-color:#8E5AFF"/>
		</linearGradient>
		<path class="st1" d="M722.8,707.8c0,17.4-6.6,33.2-17.3,45.2c-12.4,13.9-30.4,22.6-50.5,22.6h-76.6v-45.2H655
			c12.5,0,22.6-10.1,22.6-22.6c0-12.5-10.2-22.6-22.6-22.6H533.2v271.3H488V640H655C692.4,640,722.8,670.4,722.8,707.8z"/>
		
			<linearGradient id="SVGID_00000003815689387020162860000015186370891250955146_" gradientUnits="userSpaceOnUse" x1="794.7007" y1="622.2872" x2="494.1512" y2="946.24">
			<stop  offset="0" style="stop-color:#21EDF7"/>
			<stop  offset="1" style="stop-color:#8E5AFF"/>
		</linearGradient>
		<path style="fill:url(#SVGID_00000003815689387020162860000015186370891250955146_);" d="M677.7,798.2c0-12.5-10.2-22.6-22.6-22.6
			h-76.6v-45.2H655c20,0,38.1,8.8,50.5,22.6c10.8,12,17.3,27.9,17.3,45.2c0,37.4-30.4,67.8-67.8,67.8h-76.6v-45.2H655
			C667.5,820.8,677.7,810.7,677.7,798.2z"/>
		
			<linearGradient id="SVGID_00000021837668880169576700000010930391268391106712_" gradientUnits="userSpaceOnUse" x1="752.264" y1="582.9163" x2="451.7146" y2="906.8691">
			<stop  offset="0" style="stop-color:#21EDF7"/>
			<stop  offset="1" style="stop-color:#8E5AFF"/>
		</linearGradient>
		
			<rect x="488" y="820.8" style="fill:url(#SVGID_00000021837668880169576700000010930391268391106712_);" width="45.2" height="45.2"/>
		
			<linearGradient id="SVGID_00000129205725536766997530000005847328138496140717_" gradientUnits="userSpaceOnUse" x1="758.4592" y1="588.6639" x2="457.9098" y2="912.6168">
			<stop  offset="0" style="stop-color:#21EDF7"/>
			<stop  offset="1" style="stop-color:#8E5AFF"/>
		</linearGradient>
		<path style="fill:url(#SVGID_00000129205725536766997530000005847328138496140717_);" d="M813.3,707.8v90.4
			c0,87.3-71,158.3-158.3,158.3H488v-45.2H655c62.3,0,113-50.7,113-113.1v-90.4c0-62.3-50.7-113-113-113H488v-45.2H655
			C742.3,549.5,813.3,620.5,813.3,707.8z"/>
	</g>
	<g>
		<g>
			<path class="st5" d="M1026.1,709.3c-6.1,11.1-15,19.7-26.5,25.9c-11.5,6.2-25,9.3-40.6,9.3h-55.2V598.4h55.2
				c15.7,0,29.3,3,40.7,9.1c11.4,6.1,20.2,14.6,26.4,25.6c6.1,11,9.2,23.7,9.2,38S1032.3,698.2,1026.1,709.3z M988.1,702
				c7.6-7.3,11.5-17.6,11.5-30.8c0-13.2-3.8-23.5-11.5-30.8s-18.4-11-32.1-11h-16.7v83.5H956C969.7,712.9,980.5,709.3,988.1,702z"/>
			<path class="st5" d="M1166.1,682.1c5.2,6.5,7.8,14,7.8,22.5c0,12.5-4.2,22.3-12.5,29.4c-8.3,7-20.3,10.5-35.9,10.5h-68V598.4
				h66.3c14.9,0,26.4,3.2,34.5,9.7c8.1,6.5,12.2,15.7,12.2,27.7c0,8.8-2.3,16.2-7,22c-4.7,5.9-10.8,9.7-18.4,11.5
				C1153.9,671.4,1160.9,675.6,1166.1,682.1z M1092.8,658.1h23.2c12.3,0,18.4-5.2,18.4-15.7c0-10.5-6.3-15.7-18.8-15.7h-22.7V658.1z
				 M1137.7,699.7c0-5.2-1.7-9.3-5.2-12.3c-3.4-3-8.3-4.4-14.7-4.4h-25v32.9h25.2C1131.1,715.8,1137.7,710.4,1137.7,699.7z"/>
		</g>
		<g>
			<path class="st5" d="M961.6,808.7v12.7h-42v30.3h34.6V864h-34.6v42.5h-15.8v-97.8H961.6z"/>
			<path class="st5" d="M1034.1,906.5l-24.4-39.1h-11.2v39.1h-15.8v-97.8h34.5c11.2,0,19.6,2.7,25.4,8.2c5.8,5.5,8.7,12.7,8.7,21.6
				c0,7.7-2.1,13.9-6.4,18.8c-4.3,4.9-10.5,8-18.6,9.4l25.6,39.8H1034.1z M998.5,856.2h17.4c12.7,0,19.1-5.6,19.1-16.9
				c0-5.4-1.5-9.5-4.6-12.5c-3.1-3-7.9-4.5-14.5-4.5h-17.4V856.2z"/>
			<path class="st5" d="M1130.7,885.3h-41.3l-7.5,21.2h-16.9l36-96.3h18.1l35.9,96.3h-16.9L1130.7,885.3z M1126.3,873.1l-16.2-45.7
				l-16.2,45.7H1126.3z"/>
			<path class="st5" d="M1275.2,810.3v96.3h-15.9v-72.2l-27.8,72.2h-13.9l-28-72.2v72.2h-15.8v-96.3h19.1l31.9,76.9l31.3-76.9
				H1275.2z"/>
			<path class="st5" d="M1316.9,821.5v29.6h36v12.2h-36v30.3h40.2v12.9h-56v-97.8h56v12.7H1316.9z"/>
			<path class="st5" d="M1503.2,808.7l-24.4,97.8h-19.4l-20.6-75.6l-20.6,75.6h-19.4l-24.4-97.8h17.3l16.9,79.5l21.5-79.5h17.5
				l21.5,79.5l16.9-79.5H1503.2z"/>
			<path class="st5" d="M1594.1,813.9c7.3,4.3,13.1,10.2,17.3,17.8c4.2,7.6,6.3,16.2,6.3,25.8s-2.1,18.2-6.3,25.8
				c-4.2,7.6-10,13.6-17.3,17.9c-7.3,4.3-15.5,6.4-24.6,6.4c-9.1,0-17.4-2.1-24.7-6.4c-7.3-4.3-13.1-10.2-17.4-17.9
				c-4.2-7.6-6.4-16.2-6.4-25.8s2.1-18.2,6.4-25.8c4.2-7.6,10-13.5,17.4-17.8c7.3-4.2,15.6-6.4,24.7-6.4
				C1578.6,807.5,1586.8,809.6,1594.1,813.9z M1552.8,826.5c-4.9,2.9-8.7,7-11.4,12.3c-2.7,5.4-4.1,11.6-4.1,18.7s1.4,13.3,4.1,18.7
				c2.7,5.4,6.5,9.5,11.4,12.3c4.9,2.9,10.5,4.3,16.8,4.3c6.2,0,11.7-1.4,16.6-4.3c4.8-2.9,8.6-7,11.4-12.3
				c2.7-5.4,4.1-11.6,4.1-18.7s-1.4-13.3-4.1-18.7s-6.5-9.5-11.4-12.3c-4.8-2.9-10.4-4.3-16.6-4.3
				C1563.3,822.2,1557.7,823.6,1552.8,826.5z"/>
			<path class="st5" d="M1692,906.5l-24.4-39.1h-11.2v39.1h-15.8v-97.8h34.5c11.2,0,19.6,2.7,25.4,8.2c5.8,5.5,8.7,12.7,8.7,21.6
				c0,7.7-2.1,13.9-6.4,18.8c-4.3,4.9-10.5,8-18.6,9.4l25.6,39.8H1692z M1656.4,856.2h17.4c12.7,0,19.1-5.6,19.1-16.9
				c0-5.4-1.5-9.5-4.6-12.5c-3.1-3-7.9-4.5-14.5-4.5h-17.4V856.2z"/>
			<path class="st5" d="M1761,857.1l43.1,49.4h-19.3l-38.6-45.3v45.3h-15.8v-97.8h15.8v44.7l38.8-44.7h19.1L1761,857.1z"/>
		</g>
	</g>
</g>
</svg>
