<?xml version="1.0" encoding="utf-8"?>
<!-- Generator: Adobe Illustrator 26.0.1, SVG Export Plug-In . SVG Version: 6.00 Build 0)  -->
<svg version="1.1" id="Layer_1" xmlns="http://www.w3.org/2000/svg" xmlns:xlink="http://www.w3.org/1999/xlink" x="0px" y="0px"
	 viewBox="0 0 16 16" style="enable-background:new 0 0 16 16;" xml:space="preserve">
<style type="text/css">
	.st0{fill:url(#SVGID_1_);}
	.st1{fill:url(#SVGID_00000049943713137409872380000008552312551493553569_);}
	.st2{fill:url(#SVGID_00000122718124497948906500000017981107849659214735_);}
	.st3{fill:url(#SVGID_00000104692652057953374050000009884024086988092048_);}
</style>
<g>
	<linearGradient id="SVGID_1_" gradientUnits="userSpaceOnUse" x1="10.2898" y1="2.4697" x2="1.5881" y2="11.849">
		<stop  offset="0" style="stop-color:#21EDF7"/>
		<stop  offset="1" style="stop-color:#8E5AFF"/>
	</linearGradient>
	<path class="st0" d="M10.1,6.7c0,0.5-0.2,1-0.5,1.3C9.2,8.4,8.7,8.7,8.1,8.7H5.9V7.3h2.2c0.4,0,0.7-0.3,0.7-0.7
		C8.8,6.3,8.5,6,8.1,6H4.6v7.9H3.3V4.7h4.8C9.2,4.7,10.1,5.6,10.1,6.7z"/>
	
		<linearGradient id="SVGID_00000160193000635987888800000016098502641095423637_" gradientUnits="userSpaceOnUse" x1="12.1711" y1="4.2151" x2="3.4694" y2="13.5944">
		<stop  offset="0" style="stop-color:#21EDF7"/>
		<stop  offset="1" style="stop-color:#8E5AFF"/>
	</linearGradient>
	<path style="fill:url(#SVGID_00000160193000635987888800000016098502641095423637_);" d="M8.8,9.3c0-0.4-0.3-0.7-0.7-0.7H5.9V7.3
		h2.2c0.6,0,1.1,0.3,1.5,0.7c0.3,0.3,0.5,0.8,0.5,1.3c0,1.1-0.9,2-2,2H5.9V10h2.2C8.5,10,8.8,9.7,8.8,9.3z"/>
	
		<linearGradient id="SVGID_00000047021136876279245770000008920127786815897988_" gradientUnits="userSpaceOnUse" x1="10.9424" y1="3.0752" x2="2.2407" y2="12.4545">
		<stop  offset="0" style="stop-color:#21EDF7"/>
		<stop  offset="1" style="stop-color:#8E5AFF"/>
	</linearGradient>
	<rect x="3.3" y="10" style="fill:url(#SVGID_00000047021136876279245770000008920127786815897988_);" width="1.3" height="1.3"/>
	
		<linearGradient id="SVGID_00000101791965610540839400000012621936048369529743_" gradientUnits="userSpaceOnUse" x1="11.1218" y1="3.2416" x2="2.4201" y2="12.6209">
		<stop  offset="0" style="stop-color:#21EDF7"/>
		<stop  offset="1" style="stop-color:#8E5AFF"/>
	</linearGradient>
	<path style="fill:url(#SVGID_00000101791965610540839400000012621936048369529743_);" d="M12.7,6.7v2.6c0,2.5-2.1,4.6-4.6,4.6H3.3
		v-1.3h4.8c1.8,0,3.3-1.5,3.3-3.3V6.7c0-1.8-1.5-3.3-3.3-3.3H3.3V2.1h4.8C10.7,2.1,12.7,4.2,12.7,6.7z"/>
</g>
</svg>
